<svg width="32" height="32" viewBox="0 0 32 32" fill="none" xmlns="http://www.w3.org/2000/svg">
  <circle cx="16" cy="16" r="16" fill="#FFCC4D"/>
  <path d="M20 8C16.686 8 14 10.686 14 14C14 17.314 16.686 20 20 20C18.343 20 17 18.657 17 17C17 15.343 18.343 14 20 14C21.657 14 23 15.343 23 17C23 20.314 20.314 23 17 23C13.686 23 11 20.314 11 17C11 13.686 13.686 11 17 11" stroke="#0F172A" stroke-width="1.8" stroke-linecap="round"/>
  <path d="M23 8L23.5 9.5L25 10L23.5 10.5L23 12L22.5 10.5L21 10L22.5 9.5L23 8Z" fill="#0F172A"/>
</svg>
