<svg width="512" height="512" viewBox="0 0 512 512" fill="none" xmlns="http://www.w3.org/2000/svg">
  <circle cx="256" cy="256" r="256" fill="#FFCC4D"/>
  <path d="M320 128C266.98 128 224 170.98 224 224C224 277.02 266.98 320 320 320C293.49 320 272 298.51 272 272C272 245.49 293.49 224 320 224C346.51 224 368 245.49 368 272C368 325.02 325.02 368 272 368C218.98 368 176 325.02 176 272C176 218.98 218.98 176 272 176" stroke="#0F172A" stroke-width="28.8" stroke-linecap="round"/>
  <path d="M368 128L376 152L400 160L376 168L368 192L360 168L336 160L360 152L368 128Z" fill="#0F172A"/>
</svg>
